<?xml version="1.0"?>
<svg width="3710" height="3710" xmlns="http://www.w3.org/2000/svg" xmlns:svg="http://www.w3.org/2000/svg" xmlns:xlink="http://www.w3.org/1999/xlink" enable-background="new 0 0 3710 3710" version="1.1" xml:space="preserve">
 <g class="layer">
  <title>Layer 1</title>
  <g id="Illustration">
   <g id="svg_4">
    <linearGradient id="SVGID_1_" x1="1.08" x2="0.34" y1="1.02" y2="0.36">
     <stop offset="0" stop-color="#DAE3FE"/>
     <stop offset="1" stop-color="#E9EFFD"/>
    </linearGradient>
    <path d="m3133.61,2346.63c-271,633.67 -992.89,988.66 -1618.9,892.9c-101.87,-15.58 -381.14,-62 -628.39,-280.97c-475.98,-421.53 -577.77,-1256.22 -193.81,-1844.45c279.45,-428.12 780.4,-670.81 1256.4,-658.68c102.53,2.62 495.47,18.73 840.8,301.51c50.72,41.53 162.59,140.23 263.41,296.8c236.75,367.67 257.1,879.91 80.49,1292.89z" fill="url(#SVGID_1_)" id="svg_5"/>
    <g id="svg_6">
     <circle cx="2747.99" cy="1241.69" fill="#91B3FA" id="svg_7" r="443.28"/>
     <g id="svg_8">
      <defs>
       <circle cx="2747.69" cy="1242.03" id="SVGID_00000062180509758070148490000009085408127482352795_" r="422.06"/>
      </defs>
      <clipPath id="SVGID_00000053530055758915228790000004269810730924483719_">
       <use id="svg_9" overflow="visible" xlink:href="#SVGID_00000062180509758070148490000009085408127482352795_"/>
      </clipPath>
      <path clip-path="url(#SVGID_00000053530055758915228790000004269810730924483719_)" d="m3276.56,1773.28l-1021.96,33.36c-6.17,0.2 -11.38,-4.68 -11.58,-10.84l-36.82,-1128.06c-0.21,-6.16 4.67,-11.37 10.84,-11.58l1021.96,-33.36c6.16,-0.2 11.37,4.68 11.57,10.85l36.83,1128.05c0.2,6.17 -4.68,11.38 -10.84,11.58z" fill="#FFFFFF" id="svg_10"/>
      <g clip-path="url(#SVGID_00000053530055758915228790000004269810730924483719_)" id="svg_11">
       <linearGradient id="SVGID_00000088817512202959889920000004228991524965789081_" x1="1.7" x2="-0.2" y1="-0.63" y2="1.04">
        <stop offset="0" stop-color="#4042E2"/>
        <stop offset="1" stop-color="#4F52FF"/>
       </linearGradient>
       <path d="m2530.53,1293.92c0,0 255.68,-48.97 460.35,-1.49l-6.68,210.11c0,0 -44.62,292.59 -81,422.42c0,0 -154.68,32.13 -230.4,-6.02c0,0 -72.79,-363.24 -108.37,-416.24c0,0 -38.46,-140.93 -33.9,-208.78z" fill="url(#SVGID_00000088817512202959889920000004228991524965789081_)" id="svg_12"/>
       <linearGradient id="SVGID_00000122722889870615997880000003054711985887937196_" x1="0.9" x2="0.18" y1="1.99" y2="-0.2">
        <stop offset="0" stop-color="#FEBBBA"/>
        <stop offset="1" stop-color="#FF928E"/>
       </linearGradient>
       <path d="m2703.04,1103.29l-19.95,173.97c0,0 72.6,30.53 121.57,-5.38l-14.78,-121.84l-86.84,-46.75z" fill="url(#SVGID_00000122722889870615997880000003054711985887937196_)" id="svg_13"/>
       <g id="svg_14">
        <linearGradient id="SVGID_00000072273668318138366730000015291548995006458759_" x1="64.7" x2="65.73" y1="-47.55" y2="-48.32">
         <stop offset="0" stop-color="#FEBBBA"/>
         <stop offset="1" stop-color="#FF928E"/>
        </linearGradient>
        <path d="m2809.59,986.94c0.86,1.44 19.14,88.24 30.4,141.98c4.65,22.2 -11.08,43.48 -33.67,45.56l-20.69,1.9c-38,3.5 -72.42,-22.52 -79.42,-60.04l-18.18,-97.41c0,0 100.83,-66.85 121.56,-31.99z" fill="url(#SVGID_00000072273668318138366730000015291548995006458759_)" id="svg_15"/>
        <linearGradient id="SVGID_00000173122947220230639480000018360074176039005865_" x1="-0.02" x2="0.98" y1="0.78" y2="0.18">
         <stop offset="0" stop-color="#09005D"/>
         <stop offset="1" stop-color="#1A0F91"/>
        </linearGradient>
        <path d="m2665.69,1019.9c-8.27,-9.62 -15.72,-25.37 0.65,-42.72c16.58,-17.57 36.15,-13.97 48.67,-8.66c5.54,2.34 12.22,1.01 15.96,-3.71c1.66,-2.1 4.17,-3.57 7.99,-3.27c7.19,0.57 13.44,-4.37 14.05,-11.56c1.06,-12.32 7.13,-26.99 28.7,-31.89c39.56,-9 60.73,30.2 60.93,58.23c0.21,28.02 -43.24,35.34 -68.15,31.5c-18.3,-2.82 -33.51,13.67 -40.29,22.63c-2.46,3.25 -3.28,7.43 -2.23,11.37l7.18,26.85c-4.09,8.55 -8.09,17.28 -13.98,24.66c-4.24,5.31 -8.98,8.32 -14.07,9.69c-7.87,-13.58 -28.71,-15.24 -38.37,-15.24c-3.69,0.01 -7.19,-1.51 -9.71,-4.21c-7.55,-8.11 -19.56,-26.37 1.66,-45.37c5.27,-4.72 5.62,-12.92 1.01,-18.3z" fill="url(#SVGID_00000173122947220230639480000018360074176039005865_)" id="svg_16"/>
        <linearGradient id="SVGID_00000058576118021082505000000014273374784586086806_" x1="189.77" x2="192.78" y1="-159.15" y2="-161.69">
         <stop offset="0" stop-color="#FEBBBA"/>
         <stop offset="1" stop-color="#FF928E"/>
        </linearGradient>
        <path d="m2719.23,1131.75c0,0 -2.45,-48.82 -22.37,-52.76c-19.93,-3.95 -40.79,11.04 -22.93,39.74c22.23,35.69 45.3,13.02 45.3,13.02z" fill="url(#SVGID_00000058576118021082505000000014273374784586086806_)" id="svg_17"/>
       </g>
       <linearGradient id="SVGID_00000049187950270677389110000000850397820771313073_" x1="3.5" x2="-0.17" y1="-0.86" y2="0.99">
        <stop offset="0" stop-color="#4042E2"/>
        <stop offset="1" stop-color="#4F52FF"/>
       </linearGradient>
       <path d="m2530.53,1293.92c0,0 -384.9,445.88 90.56,596.24l-1.11,-33.82c0,0 -180.7,-143.05 -52.06,-350.37c0,0 -23.2,-192.2 -37.39,-212.05z" fill="url(#SVGID_00000049187950270677389110000000850397820771313073_)" id="svg_18"/>
       <linearGradient id="SVGID_00000158731709981703910960000016537334290073628304_" x1="0.93" x2="-0.77" y1="-0.16" y2="2.98">
        <stop offset="0" stop-color="#FEBBBA"/>
        <stop offset="1" stop-color="#FF928E"/>
       </linearGradient>
       <path d="m2623.47,1859.61c0,0 59.55,-42.57 87.04,-29.92c27.5,12.64 28.16,32.93 28.16,32.93s-12.64,27.5 -33.15,21.4c-20.51,-6.11 -67.42,8.97 -87.93,2.86c0,0 -7.64,-26.83 5.88,-27.27z" fill="url(#SVGID_00000158731709981703910960000016537334290073628304_)" id="svg_19"/>
       <linearGradient id="SVGID_00000132798489521678607350000000871650368785847967_" x1="2.43" x2="-1.58" y1="-0.51" y2="1.37">
        <stop offset="0" stop-color="#4042E2"/>
        <stop offset="1" stop-color="#4F52FF"/>
       </linearGradient>
       <path d="m2990.88,1292.43c0,0 429.63,405.75 -35.01,586.8l-1.1,-33.82c0,0 170.99,-154.53 29.1,-353.02c-0.01,0 -18.94,-165.26 7.01,-199.96z" fill="url(#SVGID_00000132798489521678607350000000871650368785847967_)" id="svg_20"/>
       <linearGradient id="SVGID_00000009572920774603642100000013921119656231242658_" x1="0.2" x2="1.21" y1="0.03" y2="2.04">
        <stop offset="0" stop-color="#FEBBBA"/>
        <stop offset="1" stop-color="#FF928E"/>
       </linearGradient>
       <path d="m2951.49,1848.9c0,0 -62.19,-38.59 -88.8,-24.18c-26.61,14.41 -25.95,34.7 -25.95,34.7s14.41,26.61 34.48,19.19c20.07,-7.43 67.85,4.55 87.92,-2.87c0,0 5.88,-27.28 -7.65,-26.84z" fill="url(#SVGID_00000009572920774603642100000013921119656231242658_)" id="svg_21"/>
      </g>
     </g>
    </g>
    <g id="svg_22">
     <circle cx="1770.3" cy="1001.32" fill="#91B3FA" id="svg_23" r="443.28"/>
     <g id="svg_24">
      <defs>
       <circle cx="1770" cy="1001.66" id="SVGID_00000139283087148862161560000011873241138543191993_" r="422.06"/>
      </defs>
      <clipPath id="SVGID_00000044148457497626265070000011289771157360075944_">
       <use id="svg_25" overflow="visible" xlink:href="#SVGID_00000139283087148862161560000011873241138543191993_"/>
      </clipPath>
      <path clip-path="url(#SVGID_00000044148457497626265070000011289771157360075944_)" d="m2298.86,1532.91l-1021.96,33.36c-6.16,0.2 -11.37,-4.68 -11.57,-10.84l-36.83,-1128.06c-0.2,-6.16 4.68,-11.37 10.85,-11.57l1021.96,-33.36c6.16,-0.21 11.37,4.67 11.57,10.84l36.83,1128.06c0.2,6.16 -4.68,11.37 -10.85,11.57z" fill="#FFFFFF" id="svg_26"/>
      <g clip-path="url(#SVGID_00000044148457497626265070000011289771157360075944_)" id="svg_27">
       <linearGradient id="SVGID_00000163790827327342232410000001131513011345168056_" x1="1.11" x2="0.27" y1="-0.06" y2="0.83">
        <stop offset="0" stop-color="#09005D"/>
        <stop offset="1" stop-color="#1A0F91"/>
       </linearGradient>
       <path d="m1751.76,811.47c0,0 8.2,15.03 -40.77,40.72c-27.31,14.32 -80.65,35.96 -85.73,93.79c-2.62,29.85 -23.77,54.44 -53.21,60.04c-73.34,13.93 -185.6,56.27 -199.22,184.94c-10.39,98.22 40.75,133.49 93.49,144.45c38.73,8.05 65.58,44.49 59.2,83.53c-6.13,37.45 6.52,80.04 72.14,111.73c147.07,71.02 282.07,-190.74 282.07,-190.74l13.56,-449.13l-141.53,-79.33z" fill="url(#SVGID_00000163790827327342232410000001131513011345168056_)" id="svg_28"/>
       <linearGradient id="SVGID_00000131347489975074586000000009364646967992711830_" x1="0" x2="1" y1="0.5" y2="0.5">
        <stop offset="0" stop-color="#FE7062"/>
        <stop offset="1" stop-color="#FF928E"/>
       </linearGradient>
       <path d="m1786.37,1454.56c39.14,-197.01 -81.6,-303.34 -81.6,-303.34c57.19,-58.95 154.37,-94.41 190.36,-106.07c8.82,-2.86 18.43,-1.24 25.85,4.33c32.09,24.07 117.21,94.26 106.97,154.35c-7.37,43.29 -80.88,260.62 -80.88,260.62s-73.77,38.19 -160.7,-9.89z" fill="url(#SVGID_00000131347489975074586000000009364646967992711830_)" id="svg_29"/>
       <linearGradient id="SVGID_00000090990391713566373590000018186373979497640094_" x1="0.91" x2="0.58" y1="1.83" y2="0.8">
        <stop offset="0" stop-color="#FEBBBA"/>
        <stop offset="1" stop-color="#FF928E"/>
       </linearGradient>
       <path d="m1820.7,914.76l-31.48,169.71c-3.06,14.95 10.37,12.05 25.27,8.68c24.39,-5.5 55.7,-16.17 65.59,-35.65c1.01,-1.98 1.47,-4.2 1.69,-6.41l11.94,-117.33c0.95,-9.31 -4.38,-18.12 -13.06,-21.61l-31.57,-12.66c-12.15,-4.88 -25.76,2.44 -28.38,15.27z" fill="url(#SVGID_00000090990391713566373590000018186373979497640094_)" id="svg_30"/>
       <g id="svg_31">
        <linearGradient id="SVGID_00000146494882711204625850000006721253674982345385_" x1="0.83" x2="-0.24" y1="1.34" y2="-1.1">
         <stop offset="0" stop-color="#FEBBBA"/>
         <stop offset="1" stop-color="#FF928E"/>
        </linearGradient>
        <path d="m1887.02,758.71c0,0 40.87,25.59 60.47,93.77c19.6,68.18 -7.38,93.85 -36,93.36c-28.62,-0.5 -70.35,-7.85 -108,-55.93c-37.65,-48.07 30.06,-162.34 83.53,-131.2z" fill="url(#SVGID_00000146494882711204625850000006721253674982345385_)" id="svg_32"/>
        <linearGradient id="SVGID_00000182521435270831387310000003130437411301847741_" x1="0.83" x2="-1.56" y1="-0.03" y2="3.04">
         <stop offset="0" stop-color="#09005D"/>
         <stop offset="1" stop-color="#1A0F91"/>
        </linearGradient>
        <path d="m1838.69,860.88c0,0 -18.14,-98.05 64.24,-85.89l17.16,16.63c0,0 38.45,-46.54 -7.1,-79.06c-45.55,-32.52 -106.75,-21.59 -138.57,41.7c-31.82,63.3 -42.62,107.37 -12.71,144.93c29.9,37.56 50.18,3.7 50.18,3.7s-14.28,-32.92 -3.93,-47.63c10.34,-14.72 25.16,7.44 25.16,7.44l5.57,-1.82z" fill="url(#SVGID_00000182521435270831387310000003130437411301847741_)" id="svg_33"/>
        <linearGradient id="SVGID_00000026862837761264649070000012726003451978365606_" x1="1.97" x2="-2.03" y1="3.3" y2="-4.46">
         <stop offset="0" stop-color="#FEBBBA"/>
         <stop offset="1" stop-color="#FF928E"/>
        </linearGradient>
        <path d="m1827.8,869.72c0,0 -9.02,-50.46 -34.41,-35.03c-25.38,15.42 11.03,47.04 25.55,57.72l8.86,-22.69z" fill="url(#SVGID_00000026862837761264649070000012726003451978365606_)" id="svg_34"/>
       </g>
       <linearGradient id="SVGID_00000023273020550317322890000013213918727396663223_" x1="0" x2="1" y1="0.5" y2="0.5">
        <stop offset="0" stop-color="#FE7062"/>
        <stop offset="1" stop-color="#FF928E"/>
       </linearGradient>
       <path d="m1704.34,1154.11c0,0 -75.02,130.14 -87.53,226.19c-12.51,96.04 140.08,130.43 193.79,72.75l-9.38,-39.5c0,0 -86.95,19.03 -96.61,-28.42c-9.66,-47.45 66.5,-145.77 66.5,-145.77s-26.42,-70.75 -66.77,-85.25z" fill="url(#SVGID_00000023273020550317322890000013213918727396663223_)" id="svg_35"/>
       <path d="m1482.09,1277.72c-2.27,0.04 -4.83,-0.93 -6.93,-2.19c-34.61,-20.84 -54.27,-65.67 -47.82,-109c3.87,-25.97 15.88,-48.68 33.81,-63.96c12.72,-10.83 28,-17.7 42.57,-23.81c24.55,-10.3 49.9,-19.5 75.34,-27.36c2.08,-0.64 4.17,-1.28 6.26,-1.92c14.86,-4.52 30.23,-9.21 44,-16.72c17.62,-9.63 30.23,-23.15 35.5,-38.07c3.28,-9.28 3.96,-19.49 4.61,-29.35c0.81,-12.15 1.65,-24.71 7.34,-35.66c0.23,-0.43 0.75,-0.6 1.2,-0.38c0.43,0.23 0.6,0.77 0.38,1.2c-5.53,10.62 -6.35,22.99 -7.14,34.96c-0.66,9.98 -1.35,20.31 -4.71,29.83c-5.42,15.32 -18.32,29.19 -36.32,39.02c-13.94,7.61 -29.4,12.32 -44.35,16.88c-2.08,0.63 -4.17,1.27 -6.24,1.91c-25.39,7.84 -50.68,17.03 -75.18,27.3c-14.44,6.05 -29.59,12.86 -42.11,23.53c-17.6,14.99 -29.39,37.32 -33.19,62.86c-6.36,42.65 12.96,86.74 46.97,107.22c2.45,1.48 7.08,3.24 8.9,0.5c0.28,-0.42 0.83,-0.52 1.23,-0.26c0.41,0.28 0.52,0.83 0.25,1.23c-1.04,1.58 -2.62,2.21 -4.37,2.24z" fill="#91B3FA" id="svg_36"/>
       <path d="m1472.09,1237.56c-0.28,0.01 -0.55,-0.12 -0.73,-0.37c-13.74,-19.03 -21.26,-39.26 -21.75,-58.5c-0.57,-22.56 9.16,-43.92 25.39,-55.72c0.4,-0.27 0.96,-0.2 1.24,0.2s0.2,0.95 -0.19,1.24c-15.77,11.46 -25.22,32.25 -24.66,54.24c0.48,18.87 7.88,38.76 21.41,57.5c0.29,0.4 0.2,0.96 -0.2,1.24c-0.15,0.12 -0.33,0.17 -0.51,0.17z" fill="#91B3FA" id="svg_37"/>
      </g>
     </g>
    </g>
    <g id="svg_38">
     <circle cx="2809.24" cy="2317.28" fill="#91B3FA" id="svg_39" r="443.28"/>
     <g id="svg_40">
      <defs>
       <circle cx="2808.94" cy="2317.62" id="SVGID_00000065058359101268728900000009932068809342161289_" r="422.06"/>
      </defs>
      <clipPath id="SVGID_00000105428495847346510150000013753130089998723763_">
       <use id="svg_41" overflow="visible" xlink:href="#SVGID_00000065058359101268728900000009932068809342161289_"/>
      </clipPath>
      <path clip-path="url(#SVGID_00000105428495847346510150000013753130089998723763_)" d="m3337.81,2848.87l-1021.96,33.36c-6.17,0.2 -11.38,-4.68 -11.58,-10.84l-36.82,-1128.06c-0.2,-6.17 4.68,-11.38 10.84,-11.58l1021.96,-33.36c6.17,-0.2 11.38,4.68 11.58,10.85l36.82,1128.05c0.2,6.17 -4.68,11.38 -10.84,11.58z" fill="#FFFFFF" id="svg_42"/>
      <g clip-path="url(#SVGID_00000105428495847346510150000013753130089998723763_)" id="svg_43">
       <linearGradient id="SVGID_00000158731754914128041260000017654301126562759344_" x1="1.34" x2="0.55" y1="-1.57" y2="0.18">
        <stop offset="0" stop-color="#09005D"/>
        <stop offset="1" stop-color="#1A0F91"/>
       </linearGradient>
       <path d="m2734.72,2095.8c-0.82,1.57 -53.02,39.98 -53.02,39.98s11.53,82.46 58.33,115.03c51.47,35.8 124.15,-29.49 124.15,-29.49s57.84,13.75 88.6,-106.65c7.05,-27.63 -33.68,-29.96 -82.85,-24.87c-63.39,6.56 -135.21,6 -135.21,6z" fill="url(#SVGID_00000158731754914128041260000017654301126562759344_)" id="svg_44"/>
       <linearGradient id="SVGID_00000083809389002815940690000018410418093237694614_" x1="0.61" x2="0.24" y1="-0.12" y2="1.32">
        <stop offset="0" stop-color="#FE7062"/>
        <stop offset="1" stop-color="#FF928E"/>
       </linearGradient>
       <path d="m2637.16,2377.14c20.42,-14.04 43,-24.62 66.93,-31.13c8.99,-2.45 57.53,11.66 87.54,10.97c41.19,-0.95 83.12,-19.69 117.07,-11.23c33.73,8.4 61.33,19.38 77.27,30.71c47.71,33.94 75.72,97.21 92.79,159.88c-32.32,33.17 -73,47.92 -73,47.92l-7.51,304.63l-180.13,92.16l-205.6,-103.22l7.36,-297.7c0,0 -65.29,-30.4 -70.08,-41.46c-4.79,-11.06 29.76,-121.92 87.36,-161.53z" fill="url(#SVGID_00000083809389002815940690000018410418093237694614_)" id="svg_45"/>
       <linearGradient id="SVGID_00000088848664098178137590000009822861337384495256_" x1="-0.16" x2="1.98" y1="-0.19" y2="2.23">
        <stop offset="0" stop-color="#FEBBBA"/>
        <stop offset="1" stop-color="#FF928E"/>
       </linearGradient>
       <path d="m2552.84,2537.34c0,0 -87.48,242.56 112.02,342.24c41.43,-5.5 25.5,-74.29 25.5,-74.29s-86.69,-19.19 -60.66,-221.53c-23.97,-19.72 -76.86,-46.42 -76.86,-46.42z" fill="url(#SVGID_00000088848664098178137590000009822861337384495256_)" id="svg_46"/>
       <linearGradient id="SVGID_00000171697877020803777360000018194056736748836531_" x1="1.2" x2="-1.07" y1="-0.2" y2="2.22">
        <stop offset="0" stop-color="#FEBBBA"/>
        <stop offset="1" stop-color="#FF928E"/>
       </linearGradient>
       <path d="m3074.55,2537.34c0,0 60.2,253.19 -112.02,342.24c-41.42,-5.5 -25.49,-74.29 -25.49,-74.29s69.87,-34.41 60.65,-221.53c23.97,-19.72 76.86,-46.42 76.86,-46.42z" fill="url(#SVGID_00000171697877020803777360000018194056736748836531_)" id="svg_47"/>
       <linearGradient id="SVGID_00000097466872184698345180000011945155953361686184_" x1="0.51" x2="0.49" y1="1.75" y2="-0.79">
        <stop offset="0" stop-color="#FEBBBA"/>
        <stop offset="1" stop-color="#FF928E"/>
       </linearGradient>
       <path d="m2704.09,2346.01c0,0 18.2,78.88 106.58,77.24c90.01,-1.64 98.03,-77.5 98.03,-77.5l-58.79,-12.59l-4.92,-65.51l-88.44,6.55l-1.64,62.24l-50.82,9.57z" fill="url(#SVGID_00000097466872184698345180000011945155953361686184_)" id="svg_48"/>
       <linearGradient id="SVGID_00000013895736090463510810000000192692902805861817_" x1="0.36" x2="0.74" y1="0.96" y2="-0.4">
        <stop offset="0" stop-color="#FEBBBA"/>
        <stop offset="1" stop-color="#FF928E"/>
       </linearGradient>
       <path d="m2768.97,2082.03c0,0 -101.36,196.33 18.87,243.96c84.81,33.6 137.98,-130.38 122.12,-174.79c-24.52,-68.67 -40.67,-60.52 -40.67,-60.52l-100.32,-8.65z" fill="url(#SVGID_00000013895736090463510810000000192692902805861817_)" id="svg_49"/>
       <linearGradient id="SVGID_00000124126023256996297400000008417433090234436261_" x1="1.36" x2="0.49" y1="-1.04" y2="0.49">
        <stop offset="0" stop-color="#09005D"/>
        <stop offset="1" stop-color="#1A0F91"/>
       </linearGradient>
       <path d="m2934.35,2064.16c50.07,13.76 7.28,122.36 -68.11,96.68c-75.39,-25.68 -105.01,-25.31 -116.76,-4.6c-11.74,20.69 -14.27,94.21 -39.76,57.87c-27.94,-39.83 -43.52,-119.79 -9.26,-145.57c30.62,-23.03 37.77,-58.75 74.49,-57.51c48.75,1.64 86.45,-19.97 108.46,-4.38c25.27,17.9 14.1,47.38 50.94,57.51z" fill="url(#SVGID_00000124126023256996297400000008417433090234436261_)" id="svg_50"/>
       <linearGradient id="SVGID_00000098183781897915348850000013598048755615207559_" x1="1.06" x2="-0.68" y1="3.15" y2="-5.28">
        <stop offset="0" stop-color="#FEBBBA"/>
        <stop offset="1" stop-color="#FF928E"/>
       </linearGradient>
       <path d="m2744.85,2173.12c0,0 -21.62,-23.26 -25.08,4.77c-3.46,28.03 7.65,64.14 20.66,44.35c13.02,-19.79 4.42,-49.12 4.42,-49.12z" fill="url(#SVGID_00000098183781897915348850000013598048755615207559_)" id="svg_51"/>
      </g>
     </g>
    </g>
    <g id="svg_52">
     <linearGradient id="SVGID_00000178889557015756279300000012212116358923999395_" x1="0.53" x2="-0.34" y1="0.31" y2="1.35">
      <stop offset="0" stop-color="#FEBBBA"/>
      <stop offset="1" stop-color="#FF928E"/>
     </linearGradient>
     <path d="m2752.08,1440.3c0,0 -193.43,42.66 -311.09,96.98c-23.37,10.79 -42,29.65 -52.62,52.9c-35.19,77.08 -140.46,270.37 -344.63,362.61c29.4,39.03 76.74,120.2 97.37,256.64c122.62,-91.27 228.48,-243.69 279.31,-493.67c0,0 38.7,21.04 86.98,-2.4c25.51,-12.39 54.96,-29.96 77.07,-43.78c22.03,-13.77 38.44,-35.18 44.81,-60.18c8.42,-33.01 3.46,-62.03 3.46,-93.18l99.43,-30.8c0,0 29.89,-11.28 19.91,-45.12z" fill="url(#SVGID_00000178889557015756279300000012212116358923999395_)" id="svg_53"/>
     <linearGradient id="SVGID_00000148630783633235653380000001398903793448033693_" x1="0.35" x2="-0.87" y1="0.52" y2="2.4">
      <stop offset="0" stop-color="#4042E2"/>
      <stop offset="1" stop-color="#4F52FF"/>
     </linearGradient>
     <path d="m708.19,2994.28c28.49,-70.73 61.37,-127.58 89.48,-169.35c-59.71,-100.71 -77.39,-238.28 28.57,-417.42c77.26,208.63 113.51,513.05 121.08,647.77c1.42,25.27 -6.42,64.46 -13.43,93.51c-5.06,20.96 8.34,41.98 29.51,46.07c159.06,30.81 312.45,45.12 452.68,21.11c20.65,-3.54 37.15,-19.22 41.78,-39.66c91.67,-404.7 91.1,-683.28 67.08,-861.55c94.95,21.22 385.3,66.5 616.17,-105.33c-20.62,-136.44 -67.97,-217.61 -97.37,-256.64c-126.83,57.3 -291.81,75.62 -501.9,2.82c-19.37,-6.71 -39.57,-10.64 -60.05,-11.84c-111.84,-6.56 -480.4,-18.52 -785.36,82.23c-64.19,21.21 -116.17,68.66 -142.96,130.13c-82.5,189.32 -216.07,620.48 154.72,838.15z" fill="url(#SVGID_00000148630783633235653380000001398903793448033693_)" id="svg_54"/>
     <linearGradient id="SVGID_00000170276984518824668890000013480726371405699216_" x1="12.04" x2="-0.01" y1="-4.35" y2="0.71">
      <stop offset="0" stop-color="#4042E2"/>
      <stop offset="1" stop-color="#4F52FF"/>
     </linearGradient>
     <path d="m1525.35,2326.26c-4.18,0 -7.82,-3.1 -8.38,-7.36c-23.84,-180.07 -72.38,-258.66 -72.87,-259.43c-2.49,-3.95 -1.32,-9.18 2.63,-11.68c3.94,-2.48 9.17,-1.33 11.67,2.61c2.08,3.26 50.96,81.95 75.35,266.28c0.61,4.64 -2.64,8.89 -7.28,9.5c-0.38,0.05 -0.75,0.08 -1.12,0.08z" fill="url(#SVGID_00000170276984518824668890000013480726371405699216_)" id="svg_55"/>
     <linearGradient id="SVGID_00000111175302426551416250000006636014134217913534_" x1="0.3" x2="0.57" y1="1.48" y2="0.43">
      <stop offset="0" stop-color="#FEBBBA"/>
      <stop offset="1" stop-color="#FF928E"/>
     </linearGradient>
     <path d="m1010.23,1694.62c0,0 -21.12,223.27 -39.71,289.32c-2.82,10.02 1.53,20.58 10.63,25.78c31.56,18.04 107.24,47.44 210.77,-3.29c16.77,-8.22 26.85,-25.7 26.07,-44.21l-9.12,-215.75l-198.64,-51.85z" fill="url(#SVGID_00000111175302426551416250000006636014134217913534_)" id="svg_56"/>
     <g id="svg_57">
      <linearGradient id="SVGID_00000054254046779449270950000012013127085029048464_" x1="0.82" x2="-0.29" y1="0.35" y2="1.11">
       <stop offset="0" stop-color="#FEBBBA"/>
       <stop offset="1" stop-color="#FF928E"/>
      </linearGradient>
      <path d="m1213.42,1408.99c0,0 67.54,155.15 72.08,236.58c4.53,81.44 22.08,134.28 -72.08,150.68s-173.48,-30.51 -216.45,-111.63c0,0 -67.33,-124.99 -52.23,-176.18c15.11,-51.19 268.68,-99.45 268.68,-99.45z" fill="url(#SVGID_00000054254046779449270950000012013127085029048464_)" id="svg_58"/>
      <linearGradient id="SVGID_00000181794943600385270220000007906849959625506964_" x1="0.28" x2="1.03" y1="0.15" y2="1.13">
       <stop offset="0" stop-color="#09005D"/>
       <stop offset="1" stop-color="#1A0F91"/>
      </linearGradient>
      <path d="m1029.14,1626.3l5.36,-2.36c6.83,-3.01 9.75,-11.13 6.32,-17.76c-13.28,-25.65 -39.16,-84.44 -5.72,-98.15c43.09,-17.68 213.79,-52.49 250.62,-113.06c35.4,-58.21 4.04,-133.36 -43.1,-154.73c-3.15,-1.43 -6.87,-0.3 -8.49,2.77l-3.93,7.43c-2.69,5.09 -10.2,4.31 -11.8,-1.21c-1.54,-5.31 -8.6,-6.34 -11.52,-1.65c-11.33,18.12 -41.89,47.49 -123.62,62.58c-116.16,21.44 -192.96,68.45 -194.88,148.72c-0.12,5.09 -5.54,7.93 -9.9,5.27c-8.57,-5.22 -22.3,-7.68 -40.64,7.75c-31.9,26.82 -18.85,96.41 51.08,153.65c3.33,2.71 3.3,7.9 -0.3,10.24c-12.68,8.26 -31.58,27.89 17.39,54.07c50.66,27.08 88.48,24.86 103.05,22.45c3.62,-0.59 5.96,-4.1 5.17,-7.69l-15.55,-70.55c-0.88,-3.99 2.16,-7.77 6.25,-7.77l24.21,0z" fill="url(#SVGID_00000181794943600385270220000007906849959625506964_)" id="svg_59"/>
      <linearGradient id="SVGID_00000016774908217290566950000003264402207600147846_" x1="2.74" x2="-1.81" y1="-0.69" y2="1.78">
       <stop offset="0" stop-color="#FEBBBA"/>
       <stop offset="1" stop-color="#FF928E"/>
      </linearGradient>
      <path d="m1032.07,1641.19c0,0 -25.77,-99.11 -70.2,-71.32c-44.44,27.78 23.06,111.04 58.78,114.75l11.42,-43.43z" fill="url(#SVGID_00000016774908217290566950000003264402207600147846_)" id="svg_60"/>
     </g>
     <linearGradient id="SVGID_00000005262399023343474830000004839197928234497703_" x1="1.01" x2="0.46" y1="-3.69" y2="0.63">
      <stop offset="0" stop-color="#FEBBBA"/>
      <stop offset="1" stop-color="#FF928E"/>
     </linearGradient>
     <path d="m2472.01,1692.71c-1.88,0 -3.77,-0.62 -5.34,-1.9c-3.62,-2.95 -4.17,-8.28 -1.22,-11.91c7.31,-9 72.23,-88.37 97.24,-102.49c9.1,-5.14 14.52,-10.45 15.67,-15.35c0.56,-2.34 0.19,-4.98 -1.13,-7.97l-76.27,15.29l-43.22,37.08c-3.53,3.05 -8.89,2.64 -11.93,-0.91c-3.05,-3.55 -2.64,-8.89 0.91,-11.94l44.89,-38.53c1.1,-0.94 2.42,-1.58 3.84,-1.87l84.44,-16.92c3.39,-0.69 6.78,0.74 8.69,3.57c6.19,9.18 8.24,17.72 6.26,26.08c-2.33,9.89 -10.12,18.47 -23.82,26.21c-18.82,10.63 -73.1,74.66 -92.44,98.44c-1.66,2.06 -4.11,3.12 -6.57,3.12z" fill="url(#SVGID_00000005262399023343474830000004839197928234497703_)" id="svg_61"/>
     <linearGradient id="SVGID_00000107567393670834831100000014200319781103922607_" x1="-0.12" x2="1.27" y1="0.1" y2="1.48">
      <stop offset="0" stop-color="#FEBBBA"/>
      <stop offset="1" stop-color="#FF928E"/>
     </linearGradient>
     <path d="m1028.79,3101.58l298.54,3.69l-104.48,-98.35c-25.97,-24.45 -65.61,-28.41 -95.59,-8.96c-17.55,11.38 -36.59,26.84 -53.08,47.3c0,0 -186.23,-68.06 -276.51,-220.33c-28.11,41.77 -60.99,98.62 -89.48,169.34c80.93,47.51 185.84,84.87 320.6,107.31z" fill="url(#SVGID_00000107567393670834831100000014200319781103922607_)" id="svg_62"/>
     <g id="svg_63">
      <linearGradient id="SVGID_00000089575545143953861910000018088007390446998917_" x1="-0.12" x2="0.61" y1="-1.96" y2="0.95">
       <stop offset="0" stop-color="#09005D"/>
       <stop offset="1" stop-color="#1A0F91"/>
      </linearGradient>
      <path d="m1060.96,3140.08c0.57,0.03 1.16,0.05 1.74,0.04l757.81,-0.82c18.74,-0.01 33.9,-15.06 33.89,-33.59c-0.02,-18.54 -15.28,-33.86 -33.96,-33.53l-757.82,0.82c-18.73,0.01 -33.9,15.06 -33.88,33.59c0.02,17.96 14.29,32.61 32.22,33.49z" fill="url(#SVGID_00000089575545143953861910000018088007390446998917_)" id="svg_64"/>
      <linearGradient id="SVGID_00000005985376393010412030000004308529018603705494_" x1="0.27" x2="0.67" y1="0.13" y2="0.8">
       <stop offset="0" stop-color="#09005D"/>
       <stop offset="1" stop-color="#1A0F91"/>
      </linearGradient>
      <path d="m2501.75,2459.3l-631.11,0c-46.56,0 -88.93,26.58 -108.79,68.25l-291.76,612.13l784.3,0c30,0 56.96,-18.14 67.99,-45.75l226.25,-566.43c13.07,-32.73 -11.31,-68.2 -46.88,-68.2z" fill="url(#SVGID_00000005985376393010412030000004308529018603705494_)" id="svg_65"/>
      <ellipse cx="2104.46" cy="2788.23" fill="#7D97F4" id="svg_66" rx="80.05" ry="49.67" transform="matrix(0.313 -0.9497 0.9497 0.313 -1202.4119 3914.1089)"/>
     </g>
    </g>
   </g>
  </g>
 </g>
</svg>