<?xml version="1.0"?>
<svg width="500" height="500" xmlns="http://www.w3.org/2000/svg" xmlns:svg="http://www.w3.org/2000/svg" enable-background="new 0 0 500 500" version="1.1" xml:space="preserve">
 <g class="layer">
  <title>Layer 1</title>
  <g id="Background_Simple"/>
  <g id="Picture" transform="matrix(1 0 0 1 0 0)">
   <g id="svg_4" opacity="0.3">
    <rect fill="none" height="216.76" id="svg_5" stroke="#000000" stroke-miterlimit="10" width="171.87" x="80.02" y="54.64"/>
    <path d="m80.02,225.67c12.47,-14.99 29.18,-31.39 51.21,-46.87c40.98,-28.78 87.66,-42.92 120.66,-64.32" fill="none" id="svg_6" stroke="#000000" stroke-miterlimit="10"/>
    <path d="m80.02,171.26c25.52,-14.42 56.29,-34.31 80.68,-57.69c27.15,-26.03 34.38,-45.96 35.19,-58.93" fill="none" id="svg_7" stroke="#000000" stroke-miterlimit="10"/>
    <path d="m124.99,271.4c17,-37.91 49.29,-103.44 57.45,-74.35c6.26,22.3 -2.97,52.23 -12.37,74.35" fill="none" id="svg_8" stroke="#000000" stroke-miterlimit="10"/>
    <path d="m123.33,54.64c-13.67,14.8 -27.46,34.7 -13.85,44.19c18.32,12.77 42.34,-15.76 54.71,-44.19" fill="none" id="svg_9" stroke="#000000" stroke-miterlimit="10"/>
    <circle cx="215.06" cy="91.46" fill="none" id="svg_10" r="22.1" stroke="#000000" stroke-miterlimit="10"/>
    <circle cx="104.22" cy="127.94" fill="none" id="svg_11" r="11.57" stroke="#000000" stroke-miterlimit="10"/>
    <ellipse cx="116.13" cy="228.73" fill="none" id="svg_12" rx="18" ry="18" stroke="#000000" stroke-miterlimit="10" transform="matrix(0.9742 -0.2256 0.2256 0.9742 -48.6148 32.1009)"/>
   </g>
  </g>
  <g id="Table">
   <line fill="none" id="svg_56" stroke="#263238" stroke-linecap="round" stroke-linejoin="round" stroke-miterlimit="10" x1="486.11" x2="18.94" y1="433.91" y2="433.91"/>
  </g>
  <g id="Seat" transform="matrix(1 0 0 1 0 0)">
   <path d="m453.41,280.16l-115.24,0c-2.79,0 -5.18,1.8 -5.71,4.3l-31.43,149.45l127.06,0l31.02,-147.45c0.69,-3.27 -2.05,-6.3 -5.7,-6.3z" fill="#949494" id="svg_57" stroke="#263238" stroke-linecap="round" stroke-linejoin="round" stroke-miterlimit="10"/>
  </g>
  <g id="Character">
   <g id="svg_58">
    <path d="m309.53,177.82c0,0 -14.84,9.98 -14.03,17.53s8.9,13.76 8.9,13.76s11.06,-26.7 11.87,-26.97s-6.74,-4.32 -6.74,-4.32z" fill="#263238" id="svg_59" stroke="#263238" stroke-linecap="round" stroke-linejoin="round" stroke-miterlimit="10"/>
    <path d="m302.72,241.13c0,0 2.56,11.72 0.73,17.58c-1.83,5.86 -1.83,5.86 -1.83,5.86s16.84,5.12 22.34,2.19c5.49,-2.93 6.22,-4.76 6.22,-4.76s-21.24,-23.8 -27.46,-20.87z" fill="#263238" id="svg_60" stroke="#263238" stroke-linecap="round" stroke-linejoin="round" stroke-miterlimit="10"/>
    <path d="m299.9,298.62c0,0 29.06,-2.03 43.59,0c14.53,2.03 16.27,2.33 16.27,2.33s-12.78,44.46 -20.92,61.9c-8.14,17.43 -26.73,32.25 -26.73,32.25s-28.78,-49.4 -12.21,-96.48z" fill="#263238" id="svg_61" stroke="#263238" stroke-linecap="round" stroke-linejoin="round" stroke-miterlimit="10"/>
    <path d="m312.76,180.25c0,0 -8.9,19.42 -9.71,23.73c-0.81,4.32 -0.27,12.68 -0.27,15.92c0,3.23 -2.69,14.83 -2.69,17.8c0,2.96 11.32,26.43 14.29,27.5c2.97,1.08 6.74,-0.53 6.74,-0.53s1.35,10.03 1.08,12.19c-0.27,2.16 -7.01,5.13 -7.01,5.13s-8.9,17.53 -7.01,23.73c1.88,6.2 8.9,12.14 21.57,10.52c12.68,-1.62 18.61,-5.67 22.12,-16.18c3.5,-10.52 6.2,-21.04 6.2,-21.04s-4.04,0.48 -4.04,-4.11c0,-4.58 0.27,-26.43 0.27,-26.43s3.77,-37.75 -7.83,-53.13c-11.59,-15.37 -29.66,-22.38 -33.71,-15.1z" fill="#FFFFFF" id="svg_62" stroke="#263238" stroke-linecap="round" stroke-linejoin="round" stroke-miterlimit="10"/>
    <g id="svg_63">
     <path d="m307.64,177.28c0,0 22.92,23.47 30.74,36.95c7.82,13.49 0.81,51.51 3.78,51.51c2.97,0 13.04,-0.29 36.23,-11.35c23.2,-11.05 22.66,-32.63 16.99,-48.27c-5.66,-15.65 -19.51,-33.96 -31.92,-40.17c-12.4,-6.2 -46.65,-8.62 -55.82,11.33z" fill="#263238" id="svg_64" stroke="#263238" stroke-linecap="round" stroke-linejoin="round" stroke-miterlimit="10"/>
     <g id="svg_65">
      <path d="m344.71,221.39c4.3,8.79 12.71,27.74 11.26,38.79" fill="none" id="svg_66" stroke="#B2B2B2" stroke-linecap="round" stroke-linejoin="round" stroke-miterlimit="10"/>
      <path d="m342.3,216.66c0,0 0.36,0.67 0.96,1.85" fill="none" id="svg_67" stroke="#B2B2B2" stroke-linecap="round" stroke-linejoin="round" stroke-miterlimit="10"/>
      <path d="m381.14,241.08c1.07,4.6 0.36,7.41 0.36,7.95" fill="none" id="svg_68" stroke="#B2B2B2" stroke-linecap="round" stroke-linejoin="round" stroke-miterlimit="10"/>
      <path d="m317.48,178.18c0,0 -5.04,2.87 32.01,27.33c19.14,12.64 27.05,23.45 30.22,31.14" fill="none" id="svg_69" stroke="#B2B2B2" stroke-linecap="round" stroke-linejoin="round" stroke-miterlimit="10"/>
     </g>
    </g>
    <path d="m322.47,220.97c0,0 4.05,3.78 9.98,1.08" fill="none" id="svg_70" stroke="#263238" stroke-linecap="round" stroke-linejoin="round" stroke-miterlimit="10"/>
    <path d="m304.94,220.44c0,0 2.16,2.69 5.93,0.27" fill="none" id="svg_71" stroke="#263238" stroke-linecap="round" stroke-linejoin="round" stroke-miterlimit="10"/>
    <path d="m310.33,210.73c0,0 2.7,6.47 2.7,9.43c0,2.97 -1.35,5.13 -1.35,5.13" fill="none" id="svg_72" stroke="#263238" stroke-linecap="round" stroke-linejoin="round" stroke-miterlimit="10"/>
    <path d="m308.72,238.24c0,0 1.88,1.61 4.31,2.42" fill="none" id="svg_73" stroke="#263238" stroke-linecap="round" stroke-linejoin="round" stroke-miterlimit="10"/>
    <path d="m311.41,244.98c0,0 8.9,4.04 15.11,-0.81" fill="none" id="svg_74" stroke="#263238" stroke-linecap="round" stroke-linejoin="round" stroke-miterlimit="10"/>
    <path d="m319.24,210.73c0,0 11.32,-3.51 15.64,3.23" fill="none" id="svg_75" stroke="#263238" stroke-linecap="round" stroke-linejoin="round" stroke-miterlimit="10"/>
    <path d="m304.4,209.11c0,0 2.7,-2.16 4.32,-0.27" fill="none" id="svg_76" stroke="#263238" stroke-linecap="round" stroke-linejoin="round" stroke-miterlimit="10"/>
    <polygon fill="#263238" id="svg_77" points="    321.123,264.665 333.799,261.968 321.932,272.486   " stroke="#263238" stroke-linecap="round" stroke-linejoin="round" stroke-miterlimit="10"/>
    <path d="m322.07,278.35c0,1.11 -0.91,2.02 -2.03,2.02s-2.02,-0.91 -2.02,-2.02c0,-1.12 0.91,-2.03 2.02,-2.03s2.03,0.91 2.03,2.03z" fill="#FFFFFF" id="svg_78" stroke="#263238" stroke-linecap="round" stroke-linejoin="round" stroke-miterlimit="10"/>
    <path d="m321.53,281.72c0,1.11 -0.91,2.02 -2.03,2.02c-1.11,0 -2.02,-0.91 -2.02,-2.02c0,-1.12 0.91,-2.03 2.02,-2.03c1.12,0 2.03,0.91 2.03,2.03z" fill="#FFFFFF" id="svg_79" stroke="#263238" stroke-linecap="round" stroke-linejoin="round" stroke-miterlimit="10"/>
    <path d="m320.99,285.09c0,1.11 -0.91,2.02 -2.03,2.02c-1.11,0 -2.02,-0.91 -2.02,-2.02c0,-1.12 0.91,-2.03 2.02,-2.03c1.12,0 2.03,0.91 2.03,2.03z" fill="#FFFFFF" id="svg_80" stroke="#263238" stroke-linecap="round" stroke-linejoin="round" stroke-miterlimit="10"/>
    <path d="m357.9,276.98c0,1.12 -0.9,2.02 -2.02,2.02c-1.12,0 -2.02,-0.9 -2.02,-2.02s0.9,-2.02 2.02,-2.02c1.12,0 2.02,0.9 2.02,2.02z" fill="#FFFFFF" id="svg_81" stroke="#263238" stroke-linecap="round" stroke-linejoin="round" stroke-miterlimit="10"/>
    <path d="m356.03,279.05c0,1.11 -0.91,2.02 -2.03,2.02c-1.11,0 -2.02,-0.91 -2.02,-2.02c0,-1.12 0.91,-2.03 2.02,-2.03c1.12,0 2.03,0.91 2.03,2.03z" fill="#FFFFFF" id="svg_82" stroke="#263238" stroke-linecap="round" stroke-linejoin="round" stroke-miterlimit="10"/>
    <circle cx="351.82" cy="281.23" fill="#FFFFFF" id="svg_83" r="2.02" stroke="#263238" stroke-linecap="round" stroke-linejoin="round" stroke-miterlimit="10"/>
    <path d="m351.44,283.4c0,1.12 -0.91,2.03 -2.03,2.03s-2.02,-0.91 -2.02,-2.03c0,-1.11 0.91,-2.02 2.02,-2.02s2.03,0.91 2.03,2.02z" fill="#FFFFFF" id="svg_84" stroke="#263238" stroke-linecap="round" stroke-linejoin="round" stroke-miterlimit="10"/>
    <path d="m348.91,285.47c0,1.12 -0.9,2.02 -2.02,2.02c-1.12,0 -2.02,-0.9 -2.02,-2.02s0.9,-2.02 2.02,-2.02c1.12,0 2.02,0.9 2.02,2.02z" fill="#FFFFFF" id="svg_85" stroke="#263238" stroke-linecap="round" stroke-linejoin="round" stroke-miterlimit="10"/>
    <circle cx="343.91" cy="287.88" fill="#FFFFFF" id="svg_86" r="2.02" stroke="#263238" stroke-linecap="round" stroke-linejoin="round" stroke-miterlimit="10"/>
    <path d="m343.52,289.76c0,1.11 -0.9,2.02 -2.02,2.02c-1.12,0 -2.02,-0.91 -2.02,-2.02c0,-1.12 0.9,-2.03 2.02,-2.03c1.12,0 2.02,0.91 2.02,2.03z" fill="#FFFFFF" id="svg_87" stroke="#263238" stroke-linecap="round" stroke-linejoin="round" stroke-miterlimit="10"/>
    <path d="m340.65,292.47c0,1.12 -0.9,2.02 -2.02,2.02s-2.02,-0.9 -2.02,-2.02s0.9,-2.03 2.02,-2.03s2.02,0.91 2.02,2.03z" fill="#FFFFFF" id="svg_88" stroke="#263238" stroke-linecap="round" stroke-linejoin="round" stroke-miterlimit="10"/>
    <path d="m337.71,294.19c0,1.12 -0.9,2.02 -2.02,2.02c-1.12,0 -2.02,-0.9 -2.02,-2.02s0.9,-2.02 2.02,-2.02c1.12,0 2.02,0.9 2.02,2.02z" fill="#FFFFFF" id="svg_89" stroke="#263238" stroke-linecap="round" stroke-linejoin="round" stroke-miterlimit="10"/>
    <path d="m334.5,296.02c0,1.12 -0.91,2.03 -2.02,2.03c-1.12,0 -2.03,-0.91 -2.03,-2.03c0,-1.11 0.91,-2.02 2.03,-2.02c1.12,0 2.02,0.91 2.02,2.02z" fill="#FFFFFF" id="svg_90" stroke="#263238" stroke-linecap="round" stroke-linejoin="round" stroke-miterlimit="10"/>
    <path d="m320.69,289.03c0,1.11 -0.9,2.02 -2.02,2.02s-2.02,-0.91 -2.02,-2.02c0,-1.12 0.9,-2.03 2.02,-2.03s2.02,0.91 2.02,2.03z" fill="#FFFFFF" id="svg_91" stroke="#263238" stroke-linecap="round" stroke-linejoin="round" stroke-miterlimit="10"/>
    <circle cx="319.01" cy="292.35" fill="#FFFFFF" id="svg_92" r="2.02" stroke="#263238" stroke-linecap="round" stroke-linejoin="round" stroke-miterlimit="10"/>
    <path d="m321.78,295.55c0,1.11 -0.91,2.02 -2.02,2.02s-2.03,-0.91 -2.03,-2.02c0,-1.12 0.91,-2.03 2.03,-2.03s2.02,0.91 2.02,2.03z" fill="#FFFFFF" id="svg_93" stroke="#263238" stroke-linecap="round" stroke-linejoin="round" stroke-miterlimit="10"/>
    <circle cx="322.34" cy="297.63" fill="#FFFFFF" id="svg_94" r="2.02" stroke="#263238" stroke-linecap="round" stroke-linejoin="round" stroke-miterlimit="10"/>
    <path d="m331.13,297.29c0,1.11 -0.9,2.02 -2.02,2.02c-1.12,0 -2.02,-0.91 -2.02,-2.02s0.9,-2.03 2.02,-2.03c1.12,0 2.02,0.91 2.02,2.03z" fill="#FFFFFF" id="svg_95" stroke="#263238" stroke-linecap="round" stroke-linejoin="round" stroke-miterlimit="10"/>
    <path d="m328.03,298.32c0,1.12 -0.9,2.02 -2.02,2.02c-1.12,0 -2.02,-0.9 -2.02,-2.02c0,-1.12 0.9,-2.02 2.02,-2.02c1.12,0 2.02,0.9 2.02,2.02z" fill="#FFFFFF" id="svg_96" stroke="#263238" stroke-linecap="round" stroke-linejoin="round" stroke-miterlimit="10"/>
    <path d="m357.9,276.98c0,0 -9.19,30.46 -14.58,44.41c-5.39,13.95 -19.65,44.69 -19.65,44.69s-13.31,-18.38 -15.53,-40.89c-2.22,-22.5 7.05,-43.2 7.05,-43.2s-24.46,8.41 -30.48,10.63c-6.02,2.22 -12.87,5.41 -15.41,11.43c-2.53,6.02 -30.81,85.89 -32.08,89.06c-1.27,3.17 -3.8,3.49 -0.32,8.88c3.49,5.39 20.29,5.7 23.46,2.85c3.17,-2.85 21.47,-29.88 21.47,-29.88l6.66,12.99l2.85,39.31l-0.64,6.65l85.27,0l-0.95,-23.14c0,0 31.72,-79.86 34.26,-93.49c2.53,-13.63 -1.27,-20.92 -6.98,-25.04c-5.7,-4.12 -44.4,-15.26 -44.4,-15.26z" fill="#522ec1" id="svg_97" stroke="#263238" stroke-linecap="round" stroke-linejoin="round" stroke-miterlimit="10" transform="matrix(1 0 0 1 0 0)"/>
    <path d="m303.84,301.1c0,0 -2.58,-0.71 -3.52,1.87c-0.94,2.58 -1.64,4.93 -1.64,4.93s-3.28,4.7 -3.99,7.04s-2.58,21.12 -3.05,22.77c-0.47,1.64 -2.11,10.09 -2.11,10.09l-2.58,3.99l6.8,11.73c0,0 3.76,-0.23 7.28,-5.63c3.52,-5.4 3.52,-4.93 4.22,-11.73c0.7,-6.81 1.41,-43.89 1.41,-43.89s-1.41,-1.64 -2.82,-1.17z" fill="#FFFFFF" id="svg_98" stroke="#263238" stroke-linecap="round" stroke-linejoin="round" stroke-miterlimit="10"/>
    <g id="svg_99">
     <path d="m317.69,360c0,0 -0.7,-4.93 0.47,-6.57c1.17,-1.64 3.52,-1.88 3.99,-7.27c0.47,-5.4 -1.17,-10.56 -0.24,-16.43c0.94,-5.87 3.52,-4.7 3.29,-7.28c-0.23,-2.58 -3.99,-3.05 -5.16,-1.17c-1.18,1.88 -2.35,4.22 -2.35,4.22s-0.94,-15.02 -1.41,-19.94c-0.47,-4.93 -3.75,-6.34 -3.75,-6.34s-1.41,-3.99 -3.29,-3.05c-1.88,0.94 -2.11,2.11 -2.11,2.11s-2.35,1.17 -3.29,2.82c-0.94,1.64 -0.7,4.22 -0.7,4.22s-2.35,2.11 -3.05,4.69c-0.71,2.59 -3.52,19.25 -3.76,25.82c-0.23,6.57 0,18.07 1.18,20.18c1.17,2.11 4.22,6.57 4.22,6.57l1.88,5.64c0,0 8.92,-7.28 14.08,-8.22z" fill="#FFFFFF" id="svg_100" stroke="#263238" stroke-linecap="round" stroke-linejoin="round" stroke-miterlimit="10"/>
     <path d="m303.14,305.32c0,0 1.41,0.7 1.17,3.99c-0.23,3.29 -1.87,18.31 -1.87,18.31" fill="#FFFFFF" id="svg_101" stroke="#263238" stroke-linecap="round" stroke-linejoin="round" stroke-miterlimit="10"/>
     <path d="m307.13,298.28c0,0 1.87,-1.1 1.4,2.97c-0.46,4.07 -0.46,24.49 -0.46,24.49" fill="#FFFFFF" id="svg_102" stroke="#263238" stroke-linecap="round" stroke-linejoin="round" stroke-miterlimit="10"/>
     <path d="m312.53,299.22c0,0 0.94,19.01 0.47,24.41" fill="#FFFFFF" id="svg_103" stroke="#263238" stroke-linecap="round" stroke-linejoin="round" stroke-miterlimit="10"/>
     <path d="m317.69,325.5c0,0 1.14,6.9 1.6,8.54" fill="#FFFFFF" id="svg_104" stroke="#263238" stroke-linecap="round" stroke-linejoin="round" stroke-miterlimit="10"/>
    </g>
    <path d="m287.55,348.78l10.14,13.71c0,0 -21.82,33.22 -25.23,38.64c-3.42,5.41 -14.45,18.1 -20.67,19.7c-6.22,1.61 -9.63,0 -13.05,-4.81c-3.41,-4.82 -8.43,-13.05 -6.22,-18.47c2.21,-5.42 18.86,-21.11 24.08,-23.92c5.22,-2.81 30.95,-24.85 30.95,-24.85z" fill="#522ec1" id="svg_105" stroke="#263238" stroke-linecap="round" stroke-linejoin="round" stroke-miterlimit="10" transform="matrix(1 0 0 1 0 0)"/>
    <path d="m395.36,291.54c0,0 5.02,0.4 6.95,0.7c1.92,0.3 5.5,5.12 6.9,8.13c1.41,3.01 1.41,14.45 0.8,20.87c-0.6,6.42 -13.82,54.42 -16.63,69.28c-2.81,14.85 -12.46,36.98 -14.26,39.59c-1.81,2.6 -5.22,5.01 -8.63,4.81c-3.42,-0.2 -24.57,-14.93 -32.4,-22.55c-7.83,-7.63 -37.74,-46.97 -37.74,-46.97s3.82,-6.02 7.23,-8.03s10.64,-3.21 10.64,-3.21s13.25,11.44 23.48,19.87c10.24,8.43 20.27,14.05 20.27,14.05s4.42,-25.58 5.02,-28.59c0.6,-3.01 5.35,-28.89 5.35,-28.89" fill="#522ec1" id="svg_106" stroke="#263238" stroke-linecap="round" stroke-linejoin="round" stroke-miterlimit="10"/>
    <path d="m361.97,388.08c0,0 7.23,2.81 9.03,13.45" fill="none" id="svg_107" stroke="#263238" stroke-linecap="round" stroke-linejoin="round" stroke-miterlimit="10"/>
    <path d="m362.37,390.69c0,0 4.22,3.01 3.22,9.63" fill="none" id="svg_108" stroke="#263238" stroke-linecap="round" stroke-linejoin="round" stroke-miterlimit="10"/>
    <path d="m276.87,356.77c0,0 -1.81,-6.83 1.01,-14.45c2.81,-7.63 9.03,-28.91 9.03,-28.91" fill="none" id="svg_109" stroke="#263238" stroke-linecap="round" stroke-linejoin="round" stroke-miterlimit="10"/>
   </g>
  </g>
  <g id="Flowers">
   <g id="svg_110" opacity="0.3">
    <path d="m437.75,179.68c16.98,10.86 8.18,19.67 -2.69,2.68c-10.86,16.98 -19.67,8.18 -2.68,-2.68c-16.99,-10.87 -8.18,-19.68 2.68,-2.69c10.87,-16.99 19.67,-8.18 2.69,2.69z" fill="none" id="svg_111" stroke="#000000" stroke-miterlimit="10"/>
    <path d="m436.96,177.78c19.69,-4.33 19.69,8.12 0,3.79c4.33,19.69 -8.13,19.69 -3.79,0c-19.7,4.33 -19.7,-8.12 0,-3.79c-4.34,-19.7 8.12,-19.7 3.79,0z" fill="none" id="svg_112" stroke="#000000" stroke-miterlimit="10"/>
   </g>
   <g id="svg_113" opacity="0.3">
    <path d="m303.42,128.01c11.25,7.19 5.41,13.03 -1.78,1.78c-7.19,11.25 -13.03,5.41 -1.78,-1.78c-11.25,-7.19 -5.41,-13.03 1.78,-1.78c7.19,-11.25 13.03,-5.41 1.78,1.78z" fill="none" id="svg_114" stroke="#000000" stroke-miterlimit="10"/>
    <path d="m302.9,126.75c13.04,-2.86 13.04,5.38 0,2.52c2.86,13.04 -5.38,13.04 -2.52,0c-13.04,2.86 -13.04,-5.38 0,-2.52c-2.86,-13.04 5.38,-13.04 2.52,0z" fill="none" id="svg_115" stroke="#000000" stroke-miterlimit="10"/>
   </g>
   <g id="svg_116" opacity="0.3">
    <path d="m240.58,322.85c11.25,7.2 5.42,13.03 -1.78,1.78c-7.19,11.25 -13.02,5.42 -1.77,-1.78c-11.25,-7.19 -5.42,-13.02 1.77,-1.77c7.2,-11.25 13.03,-5.42 1.78,1.77z" fill="none" id="svg_117" stroke="#000000" stroke-miterlimit="10"/>
    <path d="m240.06,321.6c13.04,-2.87 13.04,5.38 0,2.51c2.87,13.04 -5.38,13.04 -2.51,0c-13.05,2.87 -13.05,-5.38 0,-2.51c-2.87,-13.04 5.38,-13.04 2.51,0z" fill="none" id="svg_118" stroke="#000000" stroke-miterlimit="10"/>
   </g>
   <g id="svg_119" opacity="0.3">
    <path d="m407.29,255.45c11.25,7.19 5.41,13.02 -1.78,1.77c-7.19,11.25 -13.03,5.42 -1.78,-1.77c-11.25,-7.2 -5.41,-13.03 1.78,-1.78c7.19,-11.25 13.03,-5.42 1.78,1.78z" fill="none" id="svg_120" stroke="#000000" stroke-miterlimit="10"/>
    <path d="m406.77,254.19c13.04,-2.87 13.04,5.38 0,2.51c2.86,13.04 -5.38,13.04 -2.52,0c-13.04,2.87 -13.04,-5.38 0,-2.51c-2.86,-13.04 5.38,-13.04 2.52,0z" fill="none" id="svg_121" stroke="#000000" stroke-miterlimit="10"/>
   </g>
   <g id="svg_122" opacity="0.3">
    <path d="m238.12,182.8c18.07,11.55 8.7,20.92 -2.86,2.85c-11.56,18.08 -20.93,8.71 -2.85,-2.85c-18.08,-11.56 -8.71,-20.93 2.85,-2.86c11.56,-18.07 20.93,-8.7 2.86,2.86z" fill="none" id="svg_123" stroke="#000000" stroke-miterlimit="10"/>
    <path d="m237.28,180.78c20.95,-4.61 20.95,8.64 0,4.03c4.61,20.96 -8.64,20.96 -4.04,0c-20.95,4.61 -20.95,-8.64 0,-4.03c-4.6,-20.95 8.65,-20.95 4.04,0z" fill="none" id="svg_124" stroke="#000000" stroke-miterlimit="10"/>
   </g>
  </g>
  <g id="Clock">
   <g id="svg_125" opacity="0.3">
    <ellipse cx="398.85" cy="105.69" fill="none" id="svg_126" rx="48.26" ry="48.26" stroke="#000000" stroke-linecap="round" stroke-linejoin="round" stroke-miterlimit="10" transform="matrix(0.2645 -0.9644 0.9644 0.2645 191.4068 462.3743)"/>
    <ellipse cx="398.85" cy="105.69" fill="none" id="svg_127" rx="42.49" ry="42.49" stroke="#000000" stroke-linecap="round" stroke-linejoin="round" stroke-miterlimit="10" transform="matrix(0.9278 -0.373 0.373 0.9278 -10.6421 156.38)"/>
    <path d="m401.81,105.69c0,1.64 -1.33,2.96 -2.96,2.96s-2.96,-1.32 -2.96,-2.96c0,-1.63 1.33,-2.95 2.96,-2.95s2.96,1.32 2.96,2.95z" fill="none" id="svg_128" stroke="#000000" stroke-linecap="round" stroke-linejoin="round" stroke-miterlimit="10"/>
    <line fill="none" id="svg_129" stroke="#000000" stroke-linecap="round" stroke-linejoin="round" stroke-miterlimit="10" x1="402" x2="412.28" y1="104.81" y2="101.6"/>
    <line fill="none" id="svg_130" stroke="#000000" stroke-linecap="round" stroke-linejoin="round" stroke-miterlimit="10" x1="398.85" x2="398.85" y1="108.65" y2="139.51"/>
   </g>
  </g>
  <g id="Device">
   <g id="svg_131">
    <path d="m244.08,453.66l61.18,-15.41c0.95,-0.23 1.31,-3.14 0.34,-3.14l-90.25,1.52l28.73,17.03z" fill="#FFFFFF" id="svg_132" stroke="#263238" stroke-linecap="round" stroke-linejoin="round" stroke-miterlimit="10"/>
    <path d="m244.08,452.11l61.18,-15.41c0.95,-0.24 0.78,-1.62 -0.2,-1.62l-89.71,0l28.73,17.03z" fill="#FFFFFF" id="svg_133" stroke="#263238" stroke-linecap="round" stroke-linejoin="round" stroke-miterlimit="10"/>
    <polygon fill="#949494" id="svg_134" points="    237.905,440.558 268.791,440.558 234.387,447.595   " stroke="#263238" stroke-linecap="round" stroke-linejoin="round" stroke-miterlimit="10"/>
    <path d="m244.08,453.66l-138.95,0l-16,-82.53c-0.58,-2.99 1.71,-5.77 4.76,-5.77l129.08,0c2.32,0 4.31,1.65 4.75,3.93l16.36,84.37z" fill="#FFFFFF" id="svg_135" stroke="#263238" stroke-linecap="round" stroke-linejoin="round" stroke-miterlimit="10"/>
    <path d="m241.9,453.66l-138.94,0l-16,-82.53c-0.58,-2.99 1.71,-5.77 4.76,-5.77l129.07,0c2.32,0 4.32,1.65 4.76,3.93l16.35,84.37z" fill="#C2C2C2" id="svg_136" stroke="#263238" stroke-linecap="round" stroke-linejoin="round" stroke-miterlimit="10"/>
    <circle cx="159.14" cy="410.43" fill="#999999" id="svg_137" r="10.14"/>
   </g>
  </g>
  <g id="Mug">
   <g id="svg_138">
    <g id="svg_139">
     <path d="m439.92,409.9c0,0 5.37,-2.83 7.98,-0.8c2.62,2.03 4.49,7.48 4.49,12.41c0,4.93 -2.03,9.86 -5.51,12.19c-3.48,2.32 -9.87,0.58 -9.87,0.58l0.29,-4.94c0,0 4.94,2.03 7.84,-1.74c2.9,-3.77 1.16,-11.02 -0.58,-12.77s-5.8,2.33 -5.8,2.33l1.16,-7.26z" fill="#FFFFFF" id="svg_140" stroke="#263238" stroke-linecap="round" stroke-linejoin="round" stroke-miterlimit="10"/>
     <polygon fill="#FFFFFF" id="svg_141" points="     442.453,401.527 404.784,401.527 408.551,448.09 438.686,448.09    " stroke="#263238" stroke-linecap="round" stroke-linejoin="round" stroke-miterlimit="10"/>
    </g>
    <g id="svg_142">
     <g id="svg_143">
      <path d="m413.89,368.91c0,7.29 -4,7.29 -4,14.59c0,7.29 4,7.29 4,14.58" fill="none" id="svg_144" stroke="#263238" stroke-linecap="round" stroke-linejoin="round" stroke-miterlimit="10"/>
     </g>
     <g id="svg_145">
      <path d="m421.62,377.56c-0.72,1.46 -1.29,3.18 -1.29,5.94c0,7.29 4,7.29 4,14.58" fill="none" id="svg_146" stroke="#263238" stroke-linecap="round" stroke-linejoin="round" stroke-miterlimit="10"/>
      <path d="m424.33,368.91c0,2.27 -0.39,3.83 -0.92,5.13" fill="none" id="svg_147" stroke="#263238" stroke-linecap="round" stroke-linejoin="round" stroke-miterlimit="10"/>
     </g>
     <g id="svg_148">
      <path d="m431.74,388.74c1.19,2.8 3.04,4.38 3.04,9.34" fill="none" id="svg_149" stroke="#263238" stroke-linecap="round" stroke-linejoin="round" stroke-miterlimit="10"/>
      <path d="m434.77,368.91c0,7.29 -4,7.29 -4,14.59" fill="none" id="svg_150" stroke="#263238" stroke-linecap="round" stroke-linejoin="round" stroke-miterlimit="10"/>
     </g>
    </g>
   </g>
  </g>
 </g>
</svg>